<?xml version="1.0" encoding="utf-8"?>
<!-- Generator: Adobe Illustrator 16.0.0, SVG Export Plug-In . SVG Version: 6.00 Build 0)  -->
<!DOCTYPE svg PUBLIC "-//W3C//DTD SVG 1.1//EN" "http://www.w3.org/Graphics/SVG/1.1/DTD/svg11.dtd">
<svg version="1.1" id="Layer_1" xmlns="http://www.w3.org/2000/svg" xmlns:xlink="http://www.w3.org/1999/xlink" x="0px" y="0px"
	 width="371.375px" height="72.667px" viewBox="0 0 371.375 72.667" enable-background="new 0 0 371.375 72.667"
	 xml:space="preserve">
<g>
	<path fill="#414042" d="M88.244,12.983h4.13c2.38,0,3.991,1.54,3.991,3.99v40.534h22.192c2.38,0,3.991,1.61,3.991,3.99v2.73H88.244
		V12.983z"/>
	<path fill="#414042" d="M132.204,14.383c2.59,0,4.48,1.96,4.48,4.34c0,2.45-1.82,4.48-4.48,4.48c-2.66,0-4.55-2.03-4.55-4.48
		C127.654,16.414,129.544,14.383,132.204,14.383z M128.564,60.588V27.685h3.64c2.101,0,3.641,1.54,3.641,3.641v32.903h-3.641
		C130.104,64.229,128.564,62.688,128.564,60.588z"/>
	<path fill="#414042" d="M154.534,16.483v27.513l12.951-14.282c1.12-1.33,2.73-2.03,4.41-2.03h6.371l-16.172,17.922l17.502,18.622
		h-6.581c-1.68,0-3.22-0.63-4.34-1.96l-14.142-14.982v13.301c0,2.101-1.541,3.641-3.641,3.641h-3.71V12.843h3.71
		C152.994,12.843,154.534,14.383,154.534,16.483z"/>
	<path fill="#414042" d="M199.685,26.984c10.711,0,17.502,6.931,17.502,19.182c0,0.91-0.07,1.89-0.07,2.661h-28.493
		c0.421,5.46,5.251,9.871,12.602,9.871c3.57,0,6.23-0.98,7.841-1.82c1.681-0.771,3.431-0.84,4.831,0.7l1.68,1.75
		c0,0-4.62,5.601-14.771,5.601c-12.392,0-19.742-7.841-19.742-18.902C181.063,33.565,189.884,26.984,199.685,26.984z
		 M188.623,43.506h20.933c-0.28-6.091-3.36-10.291-9.941-10.291C193.524,33.215,188.974,37.276,188.623,43.506z"/>
	<path fill="#414042" d="M225.653,12.983h20.792c13.022,0,19.672,7.911,19.672,17.852c0,9.871-6.65,17.222-19.532,17.222h-12.881
		v12.042c0,2.52-1.61,4.13-4.061,4.13h-3.99V12.983z M246.445,41.476c7.561,0,11.622-4.76,11.622-10.641
		c0-6.021-4.199-11.131-11.901-11.131h-12.461v21.772H246.445z"/>
	<path fill="#414042" d="M277.314,14.383c2.59,0,4.48,1.96,4.48,4.34c0,2.45-1.82,4.48-4.48,4.48s-4.551-2.03-4.551-4.48
		C272.764,16.414,274.654,14.383,277.314,14.383z M273.674,60.588V27.685h3.641c2.1,0,3.641,1.54,3.641,3.641v32.903h-3.641
		C275.215,64.229,273.674,62.688,273.674,60.588z"/>
	<path fill="#414042" d="M308.955,26.984c11.342,0,19.111,8.401,19.111,18.902c0,10.571-7.77,19.042-19.111,19.042
		s-19.043-8.471-19.043-19.042C289.912,35.386,297.613,26.984,308.955,26.984z M297.334,45.887c0,7.21,4.131,12.321,11.621,12.321
		s11.621-5.111,11.621-12.321c0-7.141-4.131-12.182-11.621-12.182S297.334,38.746,297.334,45.887z"/>
	<path fill="#414042" d="M339.895,64.229h-3.711V27.685h3.711c2.1,0,3.641,1.54,3.641,3.641v1.96c2.66-3.08,6.93-6.23,13.021-6.23
		c8.189,0,13.93,5.88,13.93,15.332v21.842h-3.709c-2.102,0-3.641-1.54-3.641-3.641V43.786c0-6.44-3.361-10.011-9.031-10.011
		c-6.371,0-10.57,4.48-10.57,10.571v16.241C343.535,62.688,341.994,64.229,339.895,64.229z"/>
</g>
<g>
	<linearGradient id="SVGID_1_" gradientUnits="userSpaceOnUse" x1="40.502" y1="21.7734" x2="59.4064" y2="2.869">
		<stop  offset="0.1082" style="stop-color:#1C9AD6"/>
		<stop  offset="0.3224" style="stop-color:#2AA4DD"/>
		<stop  offset="0.9951" style="stop-color:#49C3F1"/>
	</linearGradient>
	<path fill="url(#SVGID_1_)" d="M66.576,3.308C67.427,2.456,66.825,1,65.619,1h-7.958c-2.558,0-5.012,1.016-6.821,2.825
		L36.316,18.35l7.609,7.608L66.576,3.308z"/>
	<linearGradient id="SVGID_2_" gradientUnits="userSpaceOnUse" x1="23.6567" y1="13.623" x2="37.4056" y2="26.8809">
		<stop  offset="0.1082" style="stop-color:#1C9AD6"/>
		<stop  offset="0.3236" style="stop-color:#2AA4DD"/>
		<stop  offset="1" style="stop-color:#49C3F1"/>
	</linearGradient>
	<path fill="url(#SVGID_2_)" d="M28.682,25.983l4.712,4.681c1.618,1.606,4.228,1.607,5.845,0.002l3.874-3.845l0.813-0.863
		l-7.609-7.608l-4.801-4.8c-1.769-1.771-4.17-2.766-6.674-2.766H13.534l15.172,15.174L28.682,25.983z"/>
	<linearGradient id="SVGID_3_" gradientUnits="userSpaceOnUse" x1="32.9243" y1="50.6924" x2="17.7027" y2="64.6864">
		<stop  offset="0.1082" style="stop-color:#1C9AD6"/>
		<stop  offset="0.3224" style="stop-color:#2AA4DD"/>
		<stop  offset="0.9951" style="stop-color:#49C3F1"/>
	</linearGradient>
	<path fill="url(#SVGID_3_)" d="M6.052,69.329c-0.85,0.851-0.247,2.303,0.955,2.303h8.047c2.504,0,4.909-0.996,6.68-2.767
		l14.583-14.582l-7.61-7.608L6.052,69.329z"/>
	<linearGradient id="SVGID_4_" gradientUnits="userSpaceOnUse" x1="49.2158" y1="59.9536" x2="35.4666" y2="45.2223">
		<stop  offset="0.1082" style="stop-color:#1C9AD6"/>
		<stop  offset="0.3236" style="stop-color:#2AA4DD"/>
		<stop  offset="1" style="stop-color:#49C3F1"/>
	</linearGradient>
	<path fill="url(#SVGID_4_)" d="M39.242,41.973c-1.618-1.608-4.232-1.609-5.853-0.001l-3.869,3.84l-0.813,0.863l0,0l7.61,7.608
		l4.733,4.733c1.813,1.813,4.271,2.831,6.836,2.831H59.1L43.925,46.675l0.024-0.025L39.242,41.973z"/>
	<linearGradient id="SVGID_5_" gradientUnits="userSpaceOnUse" x1="19.8096" y1="34.9106" x2="1.6416" y2="16.2516">
		<stop  offset="0.1082" style="stop-color:#1C9AD6"/>
		<stop  offset="0.3224" style="stop-color:#2AA4DD"/>
		<stop  offset="0.9951" style="stop-color:#49C3F1"/>
	</linearGradient>
	<path fill="url(#SVGID_5_)" d="M18.349,36.315l-4.762,4.764l12.392-12.392L3.287,6.033C2.443,5.189,1,5.788,1,6.982v8.001
		c0,2.569,1,4.983,2.816,6.799L18.349,36.315z"/>
	<linearGradient id="SVGID_6_" gradientUnits="userSpaceOnUse" x1="13.4956" y1="49.3628" x2="24.5445" y2="37.5773">
		<stop  offset="0.1082" style="stop-color:#1C9AD6"/>
		<stop  offset="0.3236" style="stop-color:#2AA4DD"/>
		<stop  offset="1" style="stop-color:#49C3F1"/>
	</linearGradient>
	<path fill="url(#SVGID_6_)" d="M10.784,47.843V59.1l15.175-15.175l0.025,0.025l4.693-4.726c1.61-1.622,1.604-4.241-0.011-5.855
		l-4.688-4.682L13.587,41.079C11.792,42.874,10.784,45.306,10.784,47.843z"/>
	<linearGradient id="SVGID_7_" gradientUnits="userSpaceOnUse" x1="51.5327" y1="40.832" x2="69.4563" y2="59.4922">
		<stop  offset="0.1082" style="stop-color:#1C9AD6"/>
		<stop  offset="0.3224" style="stop-color:#2AA4DD"/>
		<stop  offset="0.9951" style="stop-color:#49C3F1"/>
	</linearGradient>
	<path fill="url(#SVGID_7_)" d="M46.781,43.876L69.39,66.64c0.825,0.829,2.242,0.246,2.242-0.925v-8.105
		c0-2.542-0.986-4.931-2.776-6.731L54.364,36.315L46.781,43.876z"/>
	<linearGradient id="SVGID_8_" gradientUnits="userSpaceOnUse" x1="65.416" y1="18.6626" x2="44.5475" y2="37.5671">
		<stop  offset="0.1082" style="stop-color:#1C9AD6"/>
		<stop  offset="0.3236" style="stop-color:#2AA4DD"/>
		<stop  offset="1" style="stop-color:#49C3F1"/>
	</linearGradient>
	<path fill="url(#SVGID_8_)" d="M61.894,24.893V13.523L46.787,28.705l-0.025-0.025l-4.624,4.676
		c-1.593,1.609-1.604,4.198-0.024,5.821l4.667,4.699l12.393-12.393C60.917,29.732,61.894,27.362,61.894,24.893z"/>
</g>
</svg>
